<?xml version="1.0" encoding="UTF-8"?>
<svg version="1.1" xmlns="http://www.w3.org/2000/svg" width="168" height="168">
<path d="M0 0 C1.15684799 -0.00671722 2.31369598 -0.01343445 3.50559998 -0.02035522 C7.32563587 -0.03933535 11.14549607 -0.04325949 14.96557617 -0.04541016 C16.95321703 -0.0502128 18.94085793 -0.05501906 20.92849749 -0.06033099 C27.17695399 -0.0765912 33.4253529 -0.08150215 39.67382812 -0.08007812 C46.10182397 -0.07887756 52.5294836 -0.09996762 58.95739442 -0.13156545 C64.49138416 -0.15779137 70.02526452 -0.16844277 75.55931586 -0.16716731 C78.85779986 -0.16665947 82.15591918 -0.17410615 85.45435524 -0.19352341 C89.13782053 -0.21317677 92.82042634 -0.20734673 96.50390625 -0.1953125 C97.58421112 -0.20655151 98.66451599 -0.21779053 99.77755737 -0.22937012 C109.58498974 -0.14818365 116.50398842 2.76262408 123.65698242 9.43115234 C131.4087627 17.48758775 132.74572864 24.86964644 132.73657227 35.84448242 C132.74328949 37.00133041 132.75000671 38.15817841 132.75692749 39.3500824 C132.77590762 43.17011829 132.77983175 46.98997849 132.78198242 50.81005859 C132.78678506 52.79769945 132.79159133 54.78534035 132.79690325 56.77297992 C132.81316346 63.02143641 132.81807442 69.26983532 132.81665039 75.51831055 C132.81544982 81.94630639 132.83653988 88.37396602 132.86813772 94.80187684 C132.89436363 100.33586658 132.90501504 105.86974694 132.90373957 111.40379828 C132.90323174 114.70228229 132.91067841 118.0004016 132.93009567 121.29883766 C132.94974904 124.98230295 132.943919 128.66490876 132.93188477 132.34838867 C132.94312378 133.42869354 132.95436279 134.50899841 132.96594238 135.62203979 C132.88475592 145.42947216 129.97394819 152.34847085 123.30541992 159.50146484 C115.24898452 167.25324513 107.86692583 168.59021107 96.89208984 168.58105469 C95.73524185 168.58777191 94.57839386 168.59448914 93.38648987 168.60140991 C89.56645397 168.62039004 85.74659377 168.62431418 81.92651367 168.62646484 C79.93887281 168.63126748 77.95123192 168.63607375 75.96359235 168.64138567 C69.71513586 168.65764589 63.46673694 168.66255684 57.21826172 168.66113281 C50.79026587 168.65993224 44.36260624 168.6810223 37.93469542 168.71262014 C32.40070568 168.73884605 26.86682533 168.74949746 21.33277398 168.74822199 C18.03428998 168.74771416 14.73617067 168.75516083 11.4377346 168.77457809 C7.75426931 168.79423146 4.07166351 168.78840142 0.38818359 168.77636719 C-0.69212128 168.7876062 -1.77242615 168.79884521 -2.88546753 168.8104248 C-12.6928999 168.72923834 -19.61189858 165.81843061 -26.76489258 159.14990234 C-34.51667286 151.09346694 -35.8536388 143.71140825 -35.84448242 132.73657227 C-35.85119965 131.57972427 -35.85791687 130.42287628 -35.86483765 129.23097229 C-35.88381778 125.41093639 -35.88774191 121.5910762 -35.88989258 117.77099609 C-35.89469522 115.78335523 -35.89950148 113.79571434 -35.90481341 111.80807477 C-35.92107362 105.55961828 -35.92598457 99.31121937 -35.92456055 93.06274414 C-35.92335998 86.63474829 -35.94445004 80.20708866 -35.97604787 73.77917784 C-36.00227379 68.24518811 -36.0129252 62.71130775 -36.01164973 57.17725641 C-36.01114189 53.8787724 -36.01858857 50.58065309 -36.03800583 47.28221703 C-36.0576592 43.59875174 -36.05182915 39.91614593 -36.03979492 36.23266602 C-36.05103394 35.15236115 -36.06227295 34.07205627 -36.07385254 32.95901489 C-35.99266607 23.15158253 -33.08185835 16.23258384 -26.41333008 9.07958984 C-18.35689468 1.32780956 -10.97483598 -0.00915638 0 0 Z " fill="#D8E6E8" transform="translate(35.553955078125,-0.29052734375)"/>
<path d="M0 0 C1.02517227 -0.0038269 2.05034454 -0.00765381 3.10658264 -0.01159668 C5.26043691 -0.01430141 7.41432485 -0.00704192 9.56811523 0.00976562 C12.83588091 0.03117286 16.10144276 0.009925 19.36914062 -0.015625 C21.4752652 -0.01298104 23.58138842 -0.00785465 25.6875 0 C27.13019508 -0.01214539 27.13019508 -0.01214539 28.60203552 -0.02453613 C38.37419964 0.10825326 46.64407642 2.81076205 54.05859375 9.26171875 C60.06518084 16.62422318 61.64907534 22.59445148 61.28515625 32.03125 C61.27097656 33.0315625 61.25679688 34.031875 61.2421875 35.0625 C61.09371208 42.34769417 61.09371208 42.34769417 59.91015625 43.53125 C57.47265625 43.71875 57.47265625 43.71875 54.91015625 43.53125 C52.53443272 41.15552647 52.66268435 40.65288377 52.63671875 37.42578125 C52.61609375 36.60658203 52.59546875 35.78738281 52.57421875 34.94335938 C52.54847202 33.22991418 52.53006841 31.51634061 52.51953125 29.80273438 C52.3532102 23.88447706 51.31732139 20.40669625 47.91015625 15.53125 C43.65556159 11.58796714 40.54235891 10.41594568 34.81542969 10.35424805 C33.77715027 10.34141281 32.73887085 10.32857758 31.66912842 10.31535339 C29.98632782 10.30427299 29.98632782 10.30427299 28.26953125 10.29296875 C27.11398743 10.284897 25.9584436 10.27682526 24.7678833 10.26850891 C22.32004292 10.25467038 19.87218327 10.2439472 17.42431641 10.23608398 C13.68875355 10.21888169 9.95407804 10.17499295 6.21875 10.13085938 C3.83985025 10.12073141 1.46094299 10.11221563 -0.91796875 10.10546875 C-2.03173889 10.08796066 -3.14550903 10.07045258 -4.29302979 10.05241394 C-10.79643761 10.07051878 -14.84254992 10.57724454 -20.08984375 14.53125 C-25.15987909 19.71778107 -25.8043931 25.43833758 -25.77734375 32.40625 C-25.79388827 34.09124623 -25.81824074 35.77618954 -25.8515625 37.4609375 C-25.85115967 38.19554199 -25.85075684 38.93014648 -25.8503418 39.68701172 C-26.08984375 41.53125 -26.08984375 41.53125 -28.08984375 43.53125 C-30.65234375 43.71875 -30.65234375 43.71875 -33.08984375 43.53125 C-35.78592001 40.83517374 -34.46294755 33.30067569 -34.47265625 29.68115234 C-34.31822569 20.21745432 -32.23917023 14.31279505 -25.40234375 7.65625 C-17.589418 1.59396342 -9.72182032 -0.08167164 0 0 Z " fill="#0CAEBF" transform="translate(50.08984375,96.46875)"/>
<path d="M0 0 C5.00341172 2.23862016 8.01597377 5.56155248 10.60546875 10.3515625 C12.27428592 15.358014 12.70181751 20.68120265 10.6640625 25.64453125 C7.44529795 31.0225924 3.41795553 34.8783859 -2.39453125 37.3515625 C-9.04327894 38.33235603 -14.26110844 37.75645023 -19.7421875 33.77734375 C-24.57277271 29.60910829 -27.10795017 25.38932194 -27.70703125 19.0390625 C-27.12906085 12.21901178 -25.52134847 8.01946381 -20.33203125 3.4140625 C-14.26898486 -1.54250615 -7.62269829 -2.06422172 0 0 Z " fill="#D6E6E8" transform="translate(71.39453125,36.6484375)"/>
<path d="M0 0 C7.25547962 3.83638533 12.30249772 8.81411896 15.25 16.625 C16.80653179 24.27794797 16.5459189 31.23323637 13 38.3125 C8.50897681 44.90646261 2.59682168 49.78022611 -5 52.3125 C-13.740867 53.17064964 -20.7989761 52.59652778 -28 47.3125 C-35.14269084 40.90114269 -38.9177439 34.63781392 -39.5625 25.0625 C-39.30596449 17.36643484 -36.19552761 10.53045236 -30.7734375 5.0703125 C-21.8742272 -2.10262958 -10.92951642 -4.5911404 0 0 Z M-26.75 13.1875 C-30.49254968 18.38548566 -31.66036687 22.92895356 -31 29.3125 C-28.77330938 35.94196526 -25.12793765 39.85828497 -19.140625 43.41796875 C-14.31631212 45.43396811 -8.47145582 45.30436121 -3.64453125 43.3671875 C1.71652284 40.16865992 5.52048969 36.0805134 8 30.3125 C8.85897311 24.43952109 8.28159667 19.25351342 5.34375 14.0703125 C2.36837266 10.17810378 -1.40220328 7.84509891 -6 6.3125 C-15.2628902 5.4971518 -20.18481751 6.32390012 -26.75 13.1875 Z " fill="#07ACBE" transform="translate(75,29.6875)"/>
<path d="M0 0 C1 1 1 1 1.39331055 3.18798828 C0.83044884 7.21222235 -1.51259127 9.24836862 -4.29296875 11.9921875 C-5.10753288 12.81748459 -5.10753288 12.81748459 -5.93855286 13.65945435 C-7.08829023 14.81696474 -8.2444507 15.96812564 -9.40649414 17.11328125 C-11.18337893 18.87092356 -12.92896834 20.65593973 -14.67382812 22.4453125 C-15.79510341 23.5668781 -16.91809511 24.68673091 -18.04296875 25.8046875 C-18.56400681 26.341008 -19.08504486 26.87732849 -19.62187195 27.42990112 C-23.30821528 31.00063449 -23.30821528 31.00063449 -26.66186523 30.99755859 C-30.51211623 29.35485988 -32.96456465 26.69263043 -35.875 23.75 C-36.48085937 23.17636719 -37.08671875 22.60273437 -37.7109375 22.01171875 C-39.32422273 20.40210007 -40.7529216 18.90811071 -42 17 C-41.8828125 14.078125 -41.8828125 14.078125 -41 12 C-38.80078125 11.22265625 -38.80078125 11.22265625 -36 11 C-33.54296875 12.87109375 -33.54296875 12.87109375 -31.1875 15.4375 C-30.39730469 16.28183594 -29.60710937 17.12617187 -28.79296875 17.99609375 C-28.20128906 18.65738281 -27.60960938 19.31867188 -27 20 C-23.4399227 18.02162081 -20.753269 15.95283381 -17.96875 12.98828125 C-17.24042969 12.23095703 -16.51210937 11.47363281 -15.76171875 10.69335938 C-14.24804438 9.09994914 -12.74025708 7.50092661 -11.23828125 5.89648438 C-10.50996094 5.14302734 -9.78164062 4.38957031 -9.03125 3.61328125 C-8.04995117 2.57361206 -8.04995117 2.57361206 -7.04882812 1.51293945 C-4.50965316 -0.36209239 -3.08877924 -0.38544466 0 0 Z " fill="#05ACBE" transform="translate(151,63)"/>
</svg>
