<?xml version="1.0" encoding="UTF-8"?>
<svg version="1.1" xmlns="http://www.w3.org/2000/svg" width="168" height="168">
<path d="M0 0 C1.15684799 -0.00671722 2.31369598 -0.01343445 3.50559998 -0.02035522 C7.32563587 -0.03933535 11.14549607 -0.04325949 14.96557617 -0.04541016 C16.95321703 -0.0502128 18.94085793 -0.05501906 20.92849749 -0.06033099 C27.17695399 -0.0765912 33.4253529 -0.08150215 39.67382812 -0.08007812 C46.10182397 -0.07887756 52.5294836 -0.09996762 58.95739442 -0.13156545 C64.49138416 -0.15779137 70.02526452 -0.16844277 75.55931586 -0.16716731 C78.85779986 -0.16665947 82.15591918 -0.17410615 85.45435524 -0.19352341 C89.13782053 -0.21317677 92.82042634 -0.20734673 96.50390625 -0.1953125 C97.58421112 -0.20655151 98.66451599 -0.21779053 99.77755737 -0.22937012 C109.58498974 -0.14818365 116.50398842 2.76262408 123.65698242 9.43115234 C131.4087627 17.48758775 132.74572864 24.86964644 132.73657227 35.84448242 C132.74328949 37.00133041 132.75000671 38.15817841 132.75692749 39.3500824 C132.77590762 43.17011829 132.77983175 46.98997849 132.78198242 50.81005859 C132.78678506 52.79769945 132.79159133 54.78534035 132.79690325 56.77297992 C132.81316346 63.02143641 132.81807442 69.26983532 132.81665039 75.51831055 C132.81544982 81.94630639 132.83653988 88.37396602 132.86813772 94.80187684 C132.89436363 100.33586658 132.90501504 105.86974694 132.90373957 111.40379828 C132.90323174 114.70228229 132.91067841 118.0004016 132.93009567 121.29883766 C132.94974904 124.98230295 132.943919 128.66490876 132.93188477 132.34838867 C132.94312378 133.42869354 132.95436279 134.50899841 132.96594238 135.62203979 C132.88475592 145.42947216 129.97394819 152.34847085 123.30541992 159.50146484 C115.24898452 167.25324513 107.86692583 168.59021107 96.89208984 168.58105469 C95.73524185 168.58777191 94.57839386 168.59448914 93.38648987 168.60140991 C89.56645397 168.62039004 85.74659377 168.62431418 81.92651367 168.62646484 C79.93887281 168.63126748 77.95123192 168.63607375 75.96359235 168.64138567 C69.71513586 168.65764589 63.46673694 168.66255684 57.21826172 168.66113281 C50.79026587 168.65993224 44.36260624 168.6810223 37.93469542 168.71262014 C32.40070568 168.73884605 26.86682533 168.74949746 21.33277398 168.74822199 C18.03428998 168.74771416 14.73617067 168.75516083 11.4377346 168.77457809 C7.75426931 168.79423146 4.07166351 168.78840142 0.38818359 168.77636719 C-0.69212128 168.7876062 -1.77242615 168.79884521 -2.88546753 168.8104248 C-12.6928999 168.72923834 -19.61189858 165.81843061 -26.76489258 159.14990234 C-34.51667286 151.09346694 -35.8536388 143.71140825 -35.84448242 132.73657227 C-35.85119965 131.57972427 -35.85791687 130.42287628 -35.86483765 129.23097229 C-35.88381778 125.41093639 -35.88774191 121.5910762 -35.88989258 117.77099609 C-35.89469522 115.78335523 -35.89950148 113.79571434 -35.90481341 111.80807477 C-35.92107362 105.55961828 -35.92598457 99.31121937 -35.92456055 93.06274414 C-35.92335998 86.63474829 -35.94445004 80.20708866 -35.97604787 73.77917784 C-36.00227379 68.24518811 -36.0129252 62.71130775 -36.01164973 57.17725641 C-36.01114189 53.8787724 -36.01858857 50.58065309 -36.03800583 47.28221703 C-36.0576592 43.59875174 -36.05182915 39.91614593 -36.03979492 36.23266602 C-36.05103394 35.15236115 -36.06227295 34.07205627 -36.07385254 32.95901489 C-35.99266607 23.15158253 -33.08185835 16.23258384 -26.41333008 9.07958984 C-18.35689468 1.32780956 -10.97483598 -0.00915638 0 0 Z " fill="#D8E6E8" transform="translate(35.553955078125,-0.29052734375)"/>
<path d="M0 0 C1.35426661 0.00238679 2.70853656 0.00328925 4.06280518 0.0027771 C6.89055325 0.00589463 9.7177905 0.02238496 12.54541016 0.04931641 C16.1727445 0.08342575 19.79952216 0.09094077 23.42699814 0.08942604 C26.21851937 0.08996909 29.00991854 0.10092351 31.80139923 0.11542892 C33.7900901 0.12489335 35.77880659 0.12835309 37.76751709 0.13174438 C39.57014008 0.15088394 39.57014008 0.15088394 41.40917969 0.17041016 C42.47029968 0.17803375 43.53141968 0.18565735 44.62469482 0.19351196 C47.140625 0.4609375 47.140625 0.4609375 49.140625 2.4609375 C48.58506944 7.01649306 48.58506944 7.01649306 47.140625 8.4609375 C45.27979836 8.56864895 43.41493163 8.60720487 41.55102539 8.61865234 C40.35631119 8.62891449 39.16159698 8.63917664 37.93067932 8.64974976 C36.62968796 8.65705109 35.32869659 8.66435242 33.98828125 8.671875 C32.64927841 8.68482917 31.31028365 8.69864416 29.97129822 8.71328735 C24.27138507 8.77501666 18.57149345 8.82899491 12.87133789 8.86230469 C9.38813816 8.88321092 5.90533502 8.91848072 2.42236137 8.96306229 C0.44483202 8.98417164 -1.53284698 8.98927979 -3.51048279 8.99423218 C-4.70834915 9.01079865 -5.90621552 9.02736511 -7.14038086 9.04443359 C-8.19881699 9.05252045 -9.25725311 9.0606073 -10.34776306 9.06893921 C-11.176595 9.19829865 -12.00542694 9.32765808 -12.859375 9.4609375 C-15.34035421 13.18240631 -15.11826066 15.10036345 -15.1340332 19.546875 C-15.13914413 20.26425842 -15.14425507 20.98164185 -15.14952087 21.72076416 C-15.16342351 24.09257341 -15.16245984 26.46409235 -15.16015625 28.8359375 C-15.16404242 30.4835623 -15.16837693 32.1311861 -15.17314148 33.77880859 C-15.18060483 37.2321294 -15.18031131 40.68534796 -15.17504883 44.13867188 C-15.16924976 48.56753486 -15.18619496 52.99598026 -15.2093935 57.42477417 C-15.2241122 60.82709201 -15.22500518 64.2293088 -15.22188377 67.63165283 C-15.22239779 69.26475859 -15.22765051 70.89786988 -15.23769569 72.53094482 C-15.25000897 74.8125743 -15.24330028 77.09338402 -15.23168945 79.375 C-15.23231888 80.6738916 -15.2329483 81.9727832 -15.2335968 83.31103516 C-15.07548497 86.36469695 -15.07548497 86.36469695 -13.77897644 88.37954712 C-10.7942049 90.06099159 -8.17834072 89.84286441 -4.7734375 89.84912109 C-4.05605408 89.85437805 -3.33867065 89.85963501 -2.59954834 89.86505127 C-0.22760258 89.87825795 2.14367238 89.86951126 4.515625 89.859375 C6.16325001 89.86139555 7.81087415 89.86430684 9.45849609 89.86807251 C12.91187046 89.87249675 16.36501206 89.86606171 19.81835938 89.85205078 C24.2472486 89.83495868 28.67559246 89.84479935 33.10446167 89.86276817 C36.50679644 89.8736034 39.90900169 89.87016091 43.31134033 89.8623848 C44.94443832 89.86038206 46.57754802 89.86284466 48.21063232 89.86982346 C50.49230138 89.87743384 52.77308452 89.86584059 55.0546875 89.84912109 C56.3535791 89.84673431 57.6524707 89.84434753 58.99072266 89.84188843 C62.08253193 89.70853494 62.08253193 89.70853494 64.05845642 88.17973328 C66.03172889 85.04560755 65.58153027 81.30307526 65.58203125 77.70703125 C65.59523911 76.85037369 65.60844696 75.99371613 65.62205505 75.11109924 C65.66297832 72.37351212 65.6846343 69.63626154 65.703125 66.8984375 C65.72688303 64.15714476 65.75494597 61.41617045 65.79490662 58.67506409 C65.81933143 56.96907145 65.83413477 55.26290929 65.83851624 53.55674744 C65.91609127 47.68547123 65.91609127 47.68547123 68.140625 45.4609375 C72.69618056 46.01649306 72.69618056 46.01649306 74.140625 47.4609375 C74.27913904 50.42055258 74.35384437 53.35509022 74.37890625 56.31640625 C74.386978 57.2107991 74.39504974 58.10519196 74.40336609 59.02668762 C74.41722727 60.9257309 74.42794028 62.82479931 74.43579102 64.72387695 C74.45295135 67.61913969 74.49681214 70.51324513 74.54101562 73.40820312 C74.55114684 75.25259576 74.5596616 77.09699812 74.56640625 78.94140625 C74.59266838 80.23548653 74.59266838 80.23548653 74.61946106 81.55570984 C74.59987423 87.02670688 73.77138515 90.1116992 70.140625 94.4609375 C65.66531351 98.39378699 61.57231287 98.61586319 55.8269043 98.63793945 C55.08507904 98.64451065 54.34325378 98.65108185 53.57894897 98.65785217 C51.12424618 98.6775609 48.66960448 98.6892421 46.21484375 98.69921875 C44.95594298 98.70533204 44.95594298 98.70533204 43.67160988 98.71156883 C39.22972485 98.73241887 34.78787063 98.74672539 30.34594727 98.75610352 C25.76262474 98.76716797 21.1797877 98.80157107 16.59663677 98.84127522 C13.06811125 98.86744225 9.53970143 98.87579539 6.01108742 98.87938499 C4.32182345 98.88425046 2.63256463 98.89586336 0.94339561 98.91442299 C-1.42394948 98.93881801 -3.79003792 98.93784937 -6.1574707 98.9309082 C-6.85119278 98.94371826 -7.54491486 98.95652832 -8.25965881 98.96972656 C-13.23211579 98.91675371 -16.00878398 97.5326369 -19.859375 94.4609375 C-23.79222449 89.98562601 -24.01430069 85.89262537 -24.03637695 80.1472168 C-24.04294815 79.40539154 -24.04951935 78.66356628 -24.05628967 77.89926147 C-24.0759984 75.44455868 -24.0876796 72.98991698 -24.09765625 70.53515625 C-24.10173178 69.69588907 -24.1058073 68.85662189 -24.11000633 67.99192238 C-24.13085637 63.55003735 -24.14516289 59.10818313 -24.15454102 54.66625977 C-24.16560547 50.08293724 -24.20000857 45.5001002 -24.23971272 40.91694927 C-24.26587975 37.38842375 -24.27423289 33.86001393 -24.27782249 30.33139992 C-24.28268796 28.64213595 -24.29430086 26.95287713 -24.31286049 25.26370811 C-24.33725551 22.89636302 -24.33628687 20.53027458 -24.3293457 18.1628418 C-24.34215576 17.46911972 -24.35496582 16.77539764 -24.36816406 16.06065369 C-24.30212306 9.86151591 -21.7783377 6.34963389 -17.47558594 2.11474609 C-11.77763302 -0.4911095 -6.18937341 -0.06857645 0 0 Z " fill="#01ABBD" transform="translate(58.859375,34.5390625)"/>
<path d="M0 0 C0.72940292 0.24720291 1.45880585 0.49440582 2.21031189 0.74909973 C2.99659729 2.91429138 2.99659729 2.91429138 3.21031189 5.74909973 C1.39009094 8.33122253 1.39009094 8.33122253 -1.37025452 11.10603333 C-1.8692627 11.61555542 -2.36827087 12.12507751 -2.88240051 12.65003967 C-4.53722783 14.33129049 -6.21306582 15.98962427 -7.89125061 17.64753723 C-9.04743516 18.80776267 -10.20272771 19.96887762 -11.35716248 21.13084412 C-13.78059514 23.56312652 -16.21455873 25.98421596 -18.65638733 28.39802551 C-21.78763981 31.49509224 -24.89118343 34.61831674 -27.98734474 37.75041771 C-30.36829399 40.1530349 -32.76333342 42.54119336 -35.16289902 44.92520523 C-36.31317781 46.07147778 -37.45900575 47.2222345 -38.60028458 48.37746811 C-40.19704949 49.98945139 -41.81174989 51.5809779 -43.43275452 53.16853333 C-44.34844208 54.07944733 -45.26412964 54.99036133 -46.20756531 55.92887878 C-48.78968811 57.74909973 -48.78968811 57.74909973 -51.49623108 57.62931824 C-55.93674067 55.92507061 -58.87041836 52.32262588 -62.16468811 48.99909973 C-62.91363342 48.28238098 -63.66257874 47.56566223 -64.43421936 46.82722473 C-65.48802795 45.77534973 -65.48802795 45.77534973 -66.56312561 44.70222473 C-67.2068512 44.06446106 -67.85057678 43.42669739 -68.5138092 42.76960754 C-69.78968811 40.74909973 -69.78968811 40.74909973 -69.49134827 38.00202942 C-69.25980042 37.25856262 -69.02825256 36.51509583 -68.78968811 35.74909973 C-66.68421936 34.87800598 -66.68421936 34.87800598 -63.78968811 34.74909973 C-61.35062386 36.40276825 -59.45758459 38.51851076 -57.47718811 40.68659973 C-56.92740295 41.2634552 -56.3776178 41.84031067 -55.81117249 42.43464661 C-54.45677302 43.85971039 -53.12134167 45.30275831 -51.78968811 46.74909973 C-48.21101126 45.23582758 -45.97959379 43.14918598 -43.28407288 40.37532043 C-42.39957962 39.47130997 -41.51508636 38.5672995 -40.60379028 37.63589478 C-40.13584612 37.15322458 -39.66790195 36.67055439 -39.18577766 36.17325783 C-37.71584082 34.65916928 -36.23799884 33.15324165 -34.75744629 31.64953613 C-30.55017654 27.37515837 -26.35138733 23.09272735 -22.17323303 18.78987122 C-19.61384205 16.15525383 -17.04009678 13.53542113 -14.45651054 10.92453575 C-13.47532609 9.9272321 -12.49972808 8.92440042 -11.52989388 7.91605568 C-10.17542227 6.50873088 -8.80048465 5.12118999 -7.42469788 3.73469543 C-6.64844559 2.93908707 -5.8721933 2.1434787 -5.07241821 1.32376099 C-2.78968811 -0.25090027 -2.78968811 -0.25090027 0 0 Z " fill="#03ACBD" transform="translate(134.78968811035156,40.25090026855469)"/>
</svg>
