<svg width="42" height="42" viewBox="0 0 42 42" fill="none" xmlns="http://www.w3.org/2000/svg">
<rect width="42" height="42" rx="8" fill="#D9E7E9"/>
<path d="M21 36.1016C29.3571 36.1016 36.1934 29.3086 36.1934 20.9888C36.1934 12.6846 29.3571 5.89164 21 5.89164C12.6429 5.89164 5.80662 12.6846 5.80662 20.9888C5.80662 29.3086 12.6429 36.1016 21 36.1016ZM21 35.3381C13.0505 35.3381 6.57491 28.9035 6.57491 20.9888C6.57491 13.0897 13.0505 6.65507 21 6.65507C28.9652 6.65507 35.4251 13.0897 35.4251 20.9888C35.4251 28.9035 28.9652 35.3381 21 35.3381ZM21 20.3968C23.3833 20.4279 25.2962 18.4181 25.2962 15.7539C25.2962 13.2611 23.3833 11.1889 21 11.1889C18.6167 11.1889 16.7195 13.2611 16.7195 15.7539C16.7195 18.4181 18.6167 20.3812 21 20.3968ZM12.8624 29.3398H29.1376C29.4983 29.3398 29.608 29.1372 29.608 28.7789C29.608 26.8937 26.8641 21.7522 21 21.7522C15.1359 21.7522 12.392 26.8937 12.392 28.7789C12.392 29.1372 12.5017 29.3398 12.8624 29.3398Z" fill="#00ABBD" stroke="#00ABBD"/>
</svg>
