<svg width="192" height="192" viewBox="0 0 192 192" fill="none" xmlns="http://www.w3.org/2000/svg">
<rect width="192" height="192" rx="12" fill="#D9E7E9"/>
<path d="M96.5189 164.789C134.585 164.789 165.724 133.621 165.724 95.4467C165.724 57.3441 134.585 26.1758 96.5189 26.1758C58.4525 26.1758 27.3138 57.3441 27.3138 95.4467C27.3138 133.621 58.4525 164.789 96.5189 164.789ZM96.5189 161.286C60.3094 161.286 30.8133 131.762 30.8133 95.4467C30.8133 59.2028 60.3094 29.6787 96.5189 29.6787C132.8 29.6787 162.225 59.2028 162.225 95.4467C162.225 131.762 132.8 161.286 96.5189 161.286ZM96.5189 92.7302C107.375 92.8732 116.088 83.6513 116.088 71.4271C116.088 59.9892 107.375 50.4814 96.5189 50.4814C85.6632 50.4814 77.0215 59.9892 77.0215 71.4271C77.0215 83.6513 85.6632 92.6587 96.5189 92.7302ZM59.4524 133.764H133.585C135.228 133.764 135.728 132.834 135.728 131.19C135.728 122.54 123.23 98.9496 96.5189 98.9496C69.8082 98.9496 57.3098 122.54 57.3098 131.19C57.3098 132.834 57.8097 133.764 59.4524 133.764Z" fill="#00ABBD" stroke="#00ABBD"/>
</svg>
