<?xml version="1.0" encoding="UTF-8"?>
<svg version="1.1" xmlns="http://www.w3.org/2000/svg" width="152" height="152">
<path d="M0 0 C1.00079086 -0.00671722 2.00158173 -0.01343445 3.03269958 -0.02035522 C6.33329263 -0.03931561 9.63368209 -0.0432585 12.93432617 -0.04541016 C15.23589663 -0.05183956 17.53746628 -0.05856803 19.83903503 -0.06558228 C24.6615895 -0.07755024 29.48407236 -0.0812636 34.30664062 -0.08007812 C40.47352952 -0.079875 46.63995727 -0.10717358 52.80673695 -0.14162254 C57.56037996 -0.16390583 62.31391227 -0.16791521 67.06760216 -0.16685867 C69.3404976 -0.1692126 71.61339619 -0.17802432 73.88624001 -0.19352341 C77.07161997 -0.21321112 80.2560089 -0.20733377 83.44140625 -0.1953125 C84.3720993 -0.20655151 85.30279236 -0.21779053 86.26168823 -0.22937012 C95.54610099 -0.1407389 102.38752983 3.14932204 109.12573242 9.43115234 C116.41657126 17.0085307 118.2153549 24.00666841 118.20532227 34.37573242 C118.21203949 35.37652328 118.21875671 36.37731415 118.22567749 37.40843201 C118.24463788 40.70902505 118.24858076 44.00941452 118.25073242 47.31005859 C118.25716182 49.61162906 118.26389029 51.9131987 118.27090454 54.21476746 C118.2828725 59.03732192 118.28658586 63.85980478 118.28540039 68.68237305 C118.28519726 74.84926194 118.31249584 81.01568969 118.34694481 87.18246937 C118.3692281 91.93611238 118.37323748 96.68964469 118.37218094 101.44333458 C118.37453487 103.71623002 118.38334659 105.98912861 118.39884567 108.26197243 C118.41853339 111.44735239 118.41265604 114.63174132 118.40063477 117.81713867 C118.41187378 118.74783173 118.42311279 119.67852478 118.43469238 120.63742065 C118.34606116 129.92183341 115.05600022 136.76326225 108.77416992 143.50146484 C101.19679157 150.79230368 94.19865386 152.59108732 83.82958984 152.58105469 C82.82879898 152.58777191 81.82800812 152.59448914 80.79689026 152.60140991 C77.49629722 152.6203703 74.19590775 152.62431318 70.89526367 152.62646484 C68.59369321 152.63289424 66.29212356 152.63962271 63.99055481 152.64663696 C59.16800034 152.65860492 54.34551749 152.66231829 49.52294922 152.66113281 C43.35606033 152.66092968 37.18963257 152.68822826 31.0228529 152.72267723 C26.26920988 152.74496052 21.51567758 152.7489699 16.76198769 152.74791336 C14.48909224 152.75026729 12.21619365 152.75907901 9.94334984 152.77457809 C6.75796988 152.79426581 3.57358094 152.78838846 0.38818359 152.77636719 C-0.54250946 152.7876062 -1.47320251 152.79884521 -2.43209839 152.8104248 C-11.71651115 152.72179359 -18.55793999 149.43173265 -25.29614258 143.14990234 C-32.58698141 135.57252399 -34.38576506 128.57438628 -34.37573242 118.20532227 C-34.38244965 117.2045314 -34.38916687 116.20374054 -34.39608765 115.17262268 C-34.41504804 111.87202964 -34.41899092 108.57164017 -34.42114258 105.27099609 C-34.42757198 102.96942563 -34.43430045 100.66785599 -34.4413147 98.36628723 C-34.45328266 93.54373277 -34.45699602 88.72124991 -34.45581055 83.89868164 C-34.45560742 77.73179275 -34.482906 71.56536499 -34.51735497 65.39858532 C-34.53963826 60.6449423 -34.54364764 55.89141 -34.54259109 51.13772011 C-34.54494502 48.86482467 -34.55375675 46.59192608 -34.56925583 44.31908226 C-34.58894354 41.1337023 -34.58306619 37.94931337 -34.57104492 34.76391602 C-34.58228394 33.83322296 -34.59352295 32.90252991 -34.60510254 31.94363403 C-34.51647132 22.65922128 -31.22641038 15.81779243 -24.94458008 9.07958984 C-17.36720172 1.78875101 -10.36906401 -0.01003264 0 0 Z " fill="#FF0101" transform="translate(34.085205078125,-0.29052734375)"/>
<path d="M0 0 C1.22396484 -0.02449219 2.44792969 -0.04898437 3.70898438 -0.07421875 C15.11448892 -0.11143084 15.11448892 -0.11143084 19.6875 4.375 C21.54813721 7.39768426 21.91620153 9.59914784 21.8125 13.125 C21.79445313 13.92421875 21.77640625 14.7234375 21.7578125 15.546875 C21.73460938 16.15015625 21.71140625 16.7534375 21.6875 17.375 C22.58057861 17.35928955 22.58057861 17.35928955 23.49169922 17.34326172 C26.18192343 17.30176051 28.87208037 17.27569296 31.5625 17.25 C32.49964844 17.23324219 33.43679687 17.21648438 34.40234375 17.19921875 C35.74619141 17.18955078 35.74619141 17.18955078 37.1171875 17.1796875 C37.94460449 17.16921387 38.77202148 17.15874023 39.62451172 17.14794922 C41.6875 17.375 41.6875 17.375 43.6875 19.375 C43.13194444 23.93055556 43.13194444 23.93055556 41.6875 25.375 C39.35452567 25.41592937 37.02044775 25.41741723 34.6875 25.375 C34.69638245 26.12588898 34.70526489 26.87677795 34.7144165 27.65042114 C34.79470729 34.74167919 34.85553761 41.83277865 34.89474869 48.92436409 C34.91558571 52.5698912 34.94383084 56.21504136 34.98925781 59.86035156 C35.03285643 63.38114987 35.05666631 66.90158661 35.06700897 70.42263412 C35.07795006 72.41347947 35.10915399 74.40418022 35.14068604 76.39480591 C35.14352374 87.86129627 35.14352374 87.86129627 30.6875 92.375 C27.54490602 94.32262742 25.11730555 94.63503718 21.44750977 94.66552734 C20.40285049 94.67828705 19.35819122 94.69104675 18.28187561 94.70419312 C17.15889572 94.70641876 16.03591583 94.70864441 14.87890625 94.7109375 C13.14059792 94.7209227 13.14059792 94.7209227 11.36717224 94.73110962 C8.91691678 94.74123247 6.46663377 94.74592675 4.01635742 94.74560547 C0.26760486 94.74997946 -3.47997129 94.78630742 -7.22851562 94.82421875 C-9.60937097 94.83008675 -11.99023191 94.83405625 -14.37109375 94.8359375 C-15.49204941 94.85030853 -16.61300507 94.86467957 -17.76792908 94.87948608 C-25.50700914 94.83403843 -25.50700914 94.83403843 -29.43383789 92.59619141 C-32.88216303 88.51914629 -33.56161508 85.66084967 -33.53955078 80.32128906 C-33.53932419 78.48984344 -33.53932419 78.48984344 -33.53909302 76.62139893 C-33.52877045 75.30774353 -33.51844788 73.99408813 -33.5078125 72.640625 C-33.50408042 71.27870898 -33.50123437 69.91679027 -33.49923706 68.55487061 C-33.49161594 64.97752414 -33.47198069 61.40034115 -33.4498291 57.82305908 C-33.42933778 54.1698223 -33.42022833 50.51655899 -33.41015625 46.86328125 C-33.38873322 39.70044647 -33.35461582 32.53774617 -33.3125 25.375 C-34.983125 25.436875 -34.983125 25.436875 -36.6875 25.5 C-40.3125 25.375 -40.3125 25.375 -42.3125 23.375 C-41.75694444 18.81944444 -41.75694444 18.81944444 -40.3125 17.375 C-38.8237814 17.28830568 -37.331055 17.26796506 -35.83984375 17.27734375 C-34.94072266 17.28056641 -34.04160156 17.28378906 -33.11523438 17.28710938 C-32.16970703 17.29548828 -31.22417969 17.30386719 -30.25 17.3125 C-29.30060547 17.31701172 -28.35121094 17.32152344 -27.37304688 17.32617188 C-25.01946935 17.3379989 -22.66601523 17.35447975 -20.3125 17.375 C-20.33352783 16.68792969 -20.35455566 16.00085937 -20.3762207 15.29296875 C-20.39257568 14.39191406 -20.40893066 13.49085937 -20.42578125 12.5625 C-20.44680908 11.66917969 -20.46783691 10.77585937 -20.48950195 9.85546875 C-20.23787152 6.32917185 -18.87718157 4.71985172 -16.3125 2.375 C-11.37626947 -0.91582035 -5.80034097 0.00605148 0 0 Z " fill="#FF0202" transform="translate(75.3125,28.625)"/>
<path d="M0 0 C1.22396484 -0.02449219 2.44792969 -0.04898437 3.70898438 -0.07421875 C15.11448892 -0.11143084 15.11448892 -0.11143084 19.6875 4.375 C21.54813721 7.39768426 21.91620153 9.59914784 21.8125 13.125 C21.79445313 13.92421875 21.77640625 14.7234375 21.7578125 15.546875 C21.73460938 16.15015625 21.71140625 16.7534375 21.6875 17.375 C22.58057861 17.35928955 22.58057861 17.35928955 23.49169922 17.34326172 C26.18192343 17.30176051 28.87208037 17.27569296 31.5625 17.25 C32.49964844 17.23324219 33.43679687 17.21648438 34.40234375 17.19921875 C35.74619141 17.18955078 35.74619141 17.18955078 37.1171875 17.1796875 C37.94460449 17.16921387 38.77202148 17.15874023 39.62451172 17.14794922 C41.6875 17.375 41.6875 17.375 43.6875 19.375 C43.13194444 23.93055556 43.13194444 23.93055556 41.6875 25.375 C39.35452567 25.41592937 37.02044775 25.41741723 34.6875 25.375 C34.69638245 26.12588898 34.70526489 26.87677795 34.7144165 27.65042114 C34.79470729 34.74167919 34.85553761 41.83277865 34.89474869 48.92436409 C34.91558571 52.5698912 34.94383084 56.21504136 34.98925781 59.86035156 C35.03285643 63.38114987 35.05666631 66.90158661 35.06700897 70.42263412 C35.07795006 72.41347947 35.10915399 74.40418022 35.14068604 76.39480591 C35.14352374 87.86129627 35.14352374 87.86129627 30.6875 92.375 C27.54490602 94.32262742 25.11730555 94.63503718 21.44750977 94.66552734 C20.40285049 94.67828705 19.35819122 94.69104675 18.28187561 94.70419312 C17.15889572 94.70641876 16.03591583 94.70864441 14.87890625 94.7109375 C13.14059792 94.7209227 13.14059792 94.7209227 11.36717224 94.73110962 C8.91691678 94.74123247 6.46663377 94.74592675 4.01635742 94.74560547 C0.26760486 94.74997946 -3.47997129 94.78630742 -7.22851562 94.82421875 C-9.60937097 94.83008675 -11.99023191 94.83405625 -14.37109375 94.8359375 C-15.49204941 94.85030853 -16.61300507 94.86467957 -17.76792908 94.87948608 C-25.50700914 94.83403843 -25.50700914 94.83403843 -29.43383789 92.59619141 C-32.88216303 88.51914629 -33.56161508 85.66084967 -33.53955078 80.32128906 C-33.53932419 78.48984344 -33.53932419 78.48984344 -33.53909302 76.62139893 C-33.52877045 75.30774353 -33.51844788 73.99408813 -33.5078125 72.640625 C-33.50408042 71.27870898 -33.50123437 69.91679027 -33.49923706 68.55487061 C-33.49161594 64.97752414 -33.47198069 61.40034115 -33.4498291 57.82305908 C-33.42933778 54.1698223 -33.42022833 50.51655899 -33.41015625 46.86328125 C-33.38873322 39.70044647 -33.35461582 32.53774617 -33.3125 25.375 C-34.983125 25.436875 -34.983125 25.436875 -36.6875 25.5 C-40.3125 25.375 -40.3125 25.375 -42.3125 23.375 C-41.75694444 18.81944444 -41.75694444 18.81944444 -40.3125 17.375 C-38.8237814 17.28830568 -37.331055 17.26796506 -35.83984375 17.27734375 C-34.94072266 17.28056641 -34.04160156 17.28378906 -33.11523438 17.28710938 C-32.16970703 17.29548828 -31.22417969 17.30386719 -30.25 17.3125 C-29.30060547 17.31701172 -28.35121094 17.32152344 -27.37304688 17.32617188 C-25.01946935 17.3379989 -22.66601523 17.35447975 -20.3125 17.375 C-20.33352783 16.68792969 -20.35455566 16.00085937 -20.3762207 15.29296875 C-20.39257568 14.39191406 -20.40893066 13.49085937 -20.42578125 12.5625 C-20.44680908 11.66917969 -20.46783691 10.77585937 -20.48950195 9.85546875 C-20.23787152 6.32917185 -18.87718157 4.71985172 -16.3125 2.375 C-11.37626947 -0.91582035 -5.80034097 0.00605148 0 0 Z M-25.3125 25.375 C-25.35441177 33.02622559 -25.39448508 40.67703678 -25.41600037 48.32827759 C-25.42657217 51.89110208 -25.44070497 55.45383179 -25.46337891 59.01660156 C-25.48921832 63.102223 -25.49896444 67.18774369 -25.5078125 71.2734375 C-25.51813507 72.55366791 -25.52845764 73.83389832 -25.53909302 75.15292358 C-25.53924408 76.33399689 -25.53939514 77.51507019 -25.53955078 78.73193359 C-25.543992 79.77562103 -25.54843323 80.81930847 -25.55300903 81.8946228 C-25.56069002 84.55051768 -25.56069002 84.55051768 -23.3125 86.375 C-21.18520274 86.68063268 -21.18520274 86.68063268 -18.7109375 86.63378906 C-17.75654785 86.64009338 -16.8021582 86.64639771 -15.81884766 86.65289307 C-14.78550293 86.6488446 -13.7521582 86.64479614 -12.6875 86.640625 C-11.10074463 86.64349518 -11.10074463 86.64349518 -9.48193359 86.64642334 C-7.24251061 86.64778602 -5.00307974 86.64408382 -2.76367188 86.63574219 C0.67335677 86.62504402 4.1098627 86.63563488 7.546875 86.6484375 C9.71875116 86.64711592 11.89062699 86.64455356 14.0625 86.640625 C15.09584473 86.64467346 16.12918945 86.64872192 17.19384766 86.65289307 C18.62543213 86.64343658 18.62543213 86.64343658 20.0859375 86.63378906 C21.34929932 86.63140228 21.34929932 86.63140228 22.63818359 86.62896729 C24.91196396 86.56038517 24.91196396 86.56038517 26.6875 84.375 C26.9806498 81.78529515 26.9806498 81.78529515 26.91455078 78.73193359 C26.91432419 76.96032364 26.91432419 76.96032364 26.91409302 75.15292358 C26.90377045 73.87269318 26.89344788 72.59246277 26.8828125 71.2734375 C26.87856766 69.31333237 26.87856766 69.31333237 26.87423706 67.31362915 C26.86659776 63.83817919 26.8469469 60.36289617 26.8248291 56.88751221 C26.80437696 53.3416982 26.7951272 49.79585643 26.78515625 46.25 C26.76476211 39.29151918 26.72561715 32.33349691 26.6875 25.375 C9.5275 25.375 -7.6325 25.375 -25.3125 25.375 Z " fill="#FFF6F6" transform="translate(75.3125,28.625)"/>
<path d="M0 0 C2.5625 0.1875 2.5625 0.1875 4.5625 2.1875 C4.96050538 6.30517518 4.89154717 10.42838662 4.87817383 14.5637207 C4.87501696 16.61398614 4.8984576 18.66280405 4.92382812 20.71289062 C4.92479492 22.64745117 4.92479492 22.64745117 4.92578125 24.62109375 C4.92876221 25.80759521 4.93174316 26.99409668 4.93481445 28.21655273 C4.5625 31.1875 4.5625 31.1875 3.17260742 33.11352539 C1.5625 34.1875 1.5625 34.1875 -0.5625 33.9375 C-2.4375 33.1875 -2.4375 33.1875 -3.4375 32.1875 C-3.5377093 29.90802208 -3.56831303 27.62542865 -3.5703125 25.34375 C-3.57126923 24.65945923 -3.57222595 23.97516846 -3.57321167 23.2701416 C-3.5738933 21.82088123 -3.57204023 20.37161782 -3.56787109 18.92236328 C-3.56252252 16.69687072 -3.5678166 14.47157999 -3.57421875 12.24609375 C-3.57355797 10.84114539 -3.5722768 9.43619715 -3.5703125 8.03125 C-3.56918457 6.74412109 -3.56805664 5.45699219 -3.56689453 4.13085938 C-3.39678245 0.26129096 -3.39678245 0.26129096 0 0 Z " fill="#FFF1F1" transform="translate(84.4375,67.8125)"/>
<path d="M0 0 C2.4375 0.1875 2.4375 0.1875 3.4375 1.1875 C3.65582989 5.58748945 3.62329146 9.99284812 3.62280273 14.39770508 C3.62498751 16.61233782 3.64313531 18.82647123 3.66210938 21.04101562 C3.66504356 22.44270662 3.66702819 23.8444 3.66796875 25.24609375 C3.67207764 26.52798584 3.67618652 27.80987793 3.68041992 29.13061523 C3.4375 32.1875 3.4375 32.1875 1.4375 34.1875 C-1.49703261 33.82068342 -2.42687246 33.32312754 -4.5625 31.1875 C-4.82128906 28.33007812 -4.82128906 28.33007812 -4.828125 24.71875 C-4.83070312 23.42582031 -4.83328125 22.13289063 -4.8359375 20.80078125 C-4.83174805 20.12611816 -4.82755859 19.45145508 -4.82324219 18.75634766 C-4.8125407 16.69533843 -4.82313943 14.63520081 -4.8359375 12.57421875 C-4.83335938 11.28128906 -4.83078125 9.98835938 -4.828125 8.65625 C-4.82586914 7.46451172 -4.82361328 6.27277344 -4.82128906 5.04492188 C-4.48357668 1.31606737 -3.7941222 0.2776187 0 0 Z " fill="#FFF1F1" transform="translate(67.5625,67.8125)"/>
<path d="M0 0 C1.46566406 -0.00386719 1.46566406 -0.00386719 2.9609375 -0.0078125 C3.98445313 -0.00007813 5.00796875 0.00765625 6.0625 0.015625 C7.08601563 0.00789063 8.10953125 0.00015625 9.1640625 -0.0078125 C10.14117187 -0.00523438 11.11828125 -0.00265625 12.125 0 C13.02347656 0.00225586 13.92195313 0.00451172 14.84765625 0.00683594 C17.0625 0.265625 17.0625 0.265625 19.0625 2.265625 C19.0625 4.575625 19.0625 6.885625 19.0625 9.265625 C10.4825 9.265625 1.9025 9.265625 -6.9375 9.265625 C-6.9375 0.0174184 -6.9375 0.0174184 0 0 Z " fill="#FF0000" transform="translate(69.9375,36.734375)"/>
</svg>
