<?xml version="1.0" encoding="UTF-8"?>
<svg version="1.1" xmlns="http://www.w3.org/2000/svg" width="152" height="152">
<path d="M0 0 C1.00079086 -0.00671722 2.00158173 -0.01343445 3.03269958 -0.02035522 C6.33329263 -0.03931561 9.63368209 -0.0432585 12.93432617 -0.04541016 C15.23589663 -0.05183956 17.53746628 -0.05856803 19.83903503 -0.06558228 C24.6615895 -0.07755024 29.48407236 -0.0812636 34.30664062 -0.08007812 C40.47352952 -0.079875 46.63995727 -0.10717358 52.80673695 -0.14162254 C57.56037996 -0.16390583 62.31391227 -0.16791521 67.06760216 -0.16685867 C69.3404976 -0.1692126 71.61339619 -0.17802432 73.88624001 -0.19352341 C77.07161997 -0.21321112 80.2560089 -0.20733377 83.44140625 -0.1953125 C84.3720993 -0.20655151 85.30279236 -0.21779053 86.26168823 -0.22937012 C95.54610099 -0.1407389 102.38752983 3.14932204 109.12573242 9.43115234 C116.41657126 17.0085307 118.2153549 24.00666841 118.20532227 34.37573242 C118.21203949 35.37652328 118.21875671 36.37731415 118.22567749 37.40843201 C118.24463788 40.70902505 118.24858076 44.00941452 118.25073242 47.31005859 C118.25716182 49.61162906 118.26389029 51.9131987 118.27090454 54.21476746 C118.2828725 59.03732192 118.28658586 63.85980478 118.28540039 68.68237305 C118.28519726 74.84926194 118.31249584 81.01568969 118.34694481 87.18246937 C118.3692281 91.93611238 118.37323748 96.68964469 118.37218094 101.44333458 C118.37453487 103.71623002 118.38334659 105.98912861 118.39884567 108.26197243 C118.41853339 111.44735239 118.41265604 114.63174132 118.40063477 117.81713867 C118.41187378 118.74783173 118.42311279 119.67852478 118.43469238 120.63742065 C118.34606116 129.92183341 115.05600022 136.76326225 108.77416992 143.50146484 C101.19679157 150.79230368 94.19865386 152.59108732 83.82958984 152.58105469 C82.82879898 152.58777191 81.82800812 152.59448914 80.79689026 152.60140991 C77.49629722 152.6203703 74.19590775 152.62431318 70.89526367 152.62646484 C68.59369321 152.63289424 66.29212356 152.63962271 63.99055481 152.64663696 C59.16800034 152.65860492 54.34551749 152.66231829 49.52294922 152.66113281 C43.35606033 152.66092968 37.18963257 152.68822826 31.0228529 152.72267723 C26.26920988 152.74496052 21.51567758 152.7489699 16.76198769 152.74791336 C14.48909224 152.75026729 12.21619365 152.75907901 9.94334984 152.77457809 C6.75796988 152.79426581 3.57358094 152.78838846 0.38818359 152.77636719 C-0.54250946 152.7876062 -1.47320251 152.79884521 -2.43209839 152.8104248 C-11.71651115 152.72179359 -18.55793999 149.43173265 -25.29614258 143.14990234 C-32.58698141 135.57252399 -34.38576506 128.57438628 -34.37573242 118.20532227 C-34.38244965 117.2045314 -34.38916687 116.20374054 -34.39608765 115.17262268 C-34.41504804 111.87202964 -34.41899092 108.57164017 -34.42114258 105.27099609 C-34.42757198 102.96942563 -34.43430045 100.66785599 -34.4413147 98.36628723 C-34.45328266 93.54373277 -34.45699602 88.72124991 -34.45581055 83.89868164 C-34.45560742 77.73179275 -34.482906 71.56536499 -34.51735497 65.39858532 C-34.53963826 60.6449423 -34.54364764 55.89141 -34.54259109 51.13772011 C-34.54494502 48.86482467 -34.55375675 46.59192608 -34.56925583 44.31908226 C-34.58894354 41.1337023 -34.58306619 37.94931337 -34.57104492 34.76391602 C-34.58228394 33.83322296 -34.59352295 32.90252991 -34.60510254 31.94363403 C-34.51647132 22.65922128 -31.22641038 15.81779243 -24.94458008 9.07958984 C-17.36720172 1.78875101 -10.36906401 -0.01003264 0 0 Z " fill="#F26E23" transform="translate(34.085205078125,-0.29052734375)"/>
<path d="M0 0 C3.52030329 2.24019301 5.08276134 4.3014907 6.3125 8.375 C6.68728793 12.41521393 6.36747752 15.89455243 3.96788025 19.26190186 C3.40734451 19.86995667 2.84680878 20.47801147 2.26928711 21.10449219 C1.63675018 21.79667847 1.00421326 22.48886475 0.35250854 23.20202637 C-0.32069427 23.91910767 -0.99389709 24.63618896 -1.6875 25.375 C-2.34305878 26.0827356 -2.99861755 26.79047119 -3.67404175 27.51965332 C-8.2386933 32.41023937 -12.89795199 37.20832429 -17.57202148 41.99414062 C-19.26981079 43.74372249 -20.95581996 45.50481558 -22.62963867 47.27734375 C-33.98906736 59.29171642 -42.03097642 66.91397042 -59.07202148 67.48925781 C-61.6875 67.375 -61.6875 67.375 -62.6875 66.375 C-63.17634438 56.17772328 -61.08746951 46.39339488 -54.27368164 38.66479492 C-52.49348851 36.86637254 -50.68331052 35.09724487 -48.84765625 33.35546875 C-47.87666377 32.39742903 -46.90790937 31.43711631 -45.94126892 30.47468567 C-43.93083326 28.48392751 -41.90419099 26.51215843 -39.86157227 24.55444336 C-37.25032885 22.05150178 -34.67103717 19.51848696 -32.10157108 16.97274303 C-29.63119258 14.52747821 -27.14651575 12.09696553 -24.66015625 9.66796875 C-23.73606461 8.76290085 -22.81197296 7.85783295 -21.85987854 6.92533875 C-20.55844154 5.67681877 -20.55844154 5.67681877 -19.23071289 4.40307617 C-18.47222549 3.67110519 -17.7137381 2.93913422 -16.93226624 2.1849823 C-11.69206122 -2.0402587 -6.07949292 -3.07174379 0 0 Z " fill="#FEFCFA" transform="translate(117.6875,29.625)"/>
<path d="M0 0 C0.76408676 -0.00428513 1.52817352 -0.00857025 2.31541443 -0.01298523 C3.92665619 -0.01871582 5.53792383 -0.01923816 7.14916992 -0.01489258 C9.61616887 -0.01172507 12.08197669 -0.03523197 14.54882812 -0.06054688 C16.1158839 -0.06281923 17.68294291 -0.06352366 19.25 -0.0625 C20.3563253 -0.07631462 20.3563253 -0.07631462 21.48500061 -0.09040833 C26.56094484 -0.04442592 26.56094484 -0.04442592 29.06225586 1.69067383 C30.05859375 3.30078125 30.05859375 3.30078125 29.80859375 5.42578125 C29.05859375 7.30078125 29.05859375 7.30078125 28.05859375 8.30078125 C25.56310497 8.44839153 23.09169489 8.53572244 20.59375 8.58203125 C19.84524277 8.60044067 19.09673553 8.6188501 18.32554626 8.63781738 C15.92414426 8.6967425 13.52266991 8.74947474 11.12109375 8.80078125 C7.96599153 8.86833421 4.81112188 8.9420367 1.65625 9.01953125 C0.56087669 9.03989441 0.56087669 9.03989441 -0.55662537 9.06066895 C-4.37591494 9.09443063 -4.37591494 9.09443063 -7.94140625 10.30078125 C-7.9645326 18.88883845 -7.98232283 27.47688274 -7.99321842 36.06496334 C-7.99844661 40.05235325 -8.00554309 44.03972192 -8.0168457 48.02709961 C-8.02767686 51.87203239 -8.03368357 55.7169447 -8.03628349 59.56189156 C-8.03813733 61.03197108 -8.04175716 62.50204943 -8.04713631 63.97212029 C-8.0543498 66.02432592 -8.05539706 68.07644592 -8.05493164 70.12866211 C-8.05826256 71.88405556 -8.05826256 71.88405556 -8.06166077 73.6749115 C-8.24040938 76.22645067 -8.24040938 76.22645067 -6.94140625 77.30078125 C-4.88583964 77.39491812 -2.82700444 77.41821123 -0.76928711 77.41430664 C-0.12540543 77.41445267 0.51847626 77.41459869 1.18186951 77.41474915 C3.31919678 77.4140501 5.45643788 77.40625816 7.59375 77.3984375 C9.0720566 77.39657329 10.55036382 77.3951494 12.02867126 77.39414978 C15.92658177 77.39032484 19.82445524 77.38049477 23.72235107 77.3694458 C27.69705708 77.35923117 31.67176904 77.35465205 35.64648438 77.34960938 C43.45053775 77.33887247 51.25456057 77.32179634 59.05859375 77.30078125 C60.57870478 74.2605592 60.25676406 71.07650824 60.3046875 67.73828125 C60.33761471 66.20442114 60.37082654 64.67056711 60.40429688 63.13671875 C60.45179814 60.71390827 60.49624979 58.29112445 60.53540039 55.86816406 C60.57501656 53.53294514 60.62657335 51.19822659 60.6796875 48.86328125 C60.68810165 48.13616943 60.69651581 47.40905762 60.70518494 46.65991211 C60.83189315 41.52748185 60.83189315 41.52748185 63.05859375 39.30078125 C65.62109375 39.55078125 65.62109375 39.55078125 68.05859375 40.30078125 C69.56290146 43.30939667 69.24208489 46.42146889 69.26171875 49.72265625 C69.26741882 50.46026184 69.2731189 51.19786743 69.2789917 51.95782471 C69.28844508 53.52134771 69.29497702 55.08489066 69.29882812 56.6484375 C69.30849994 59.02770393 69.33950454 61.40609389 69.37109375 63.78515625 C69.37762745 65.30598447 69.38287648 66.82681885 69.38671875 68.34765625 C69.39906555 69.05412292 69.41141235 69.7605896 69.4241333 70.48846436 C69.40320849 75.18643503 68.68999346 78.39455914 66.05859375 82.30078125 C61.65888844 85.80903712 58.73481792 86.8034484 53.13867188 86.81835938 C52.4744371 86.82536865 51.81020233 86.83237793 51.12583923 86.83959961 C48.94673918 86.85709598 46.76895524 86.84558842 44.58984375 86.83203125 C43.06579338 86.83472861 41.5417447 86.83861307 40.0177002 86.84362793 C36.8301549 86.84951159 33.64305926 86.84099717 30.45556641 86.82226562 C26.37999934 86.79947606 22.30548603 86.81260533 18.22995758 86.83655548 C15.08481987 86.85104452 11.93992992 86.8463934 8.79478455 86.83604431 C7.29255548 86.83338557 5.79030355 86.83661669 4.2881012 86.84596252 C2.18430433 86.85618034 0.08218804 86.84055819 -2.02148438 86.81835938 C-3.21584106 86.815177 -4.41019775 86.81199463 -5.64074707 86.80871582 C-10.26099566 86.09771118 -13.48823305 84.25780686 -16.29725647 80.474823 C-17.19538162 77.44360008 -17.22015216 74.6777009 -17.24780273 71.51611328 C-17.25612625 70.84241699 -17.26444977 70.1687207 -17.27302551 69.47460938 C-17.29707568 67.25254498 -17.30589123 65.0307744 -17.3125 62.80859375 C-17.32147001 61.2592663 -17.33059192 59.70993972 -17.33985901 58.16061401 C-17.3563379 54.91418353 -17.36404712 51.66785603 -17.36694336 48.42138672 C-17.37232674 44.26948214 -17.41000825 40.11855071 -17.45568752 35.96692085 C-17.48548805 32.76692198 -17.49266755 29.56715665 -17.49366951 26.3670311 C-17.49786577 24.8368471 -17.51027641 23.30666202 -17.53118706 21.77661514 C-17.55816739 19.63176962 -17.55325944 17.48916911 -17.54077148 15.34423828 C-17.54584213 14.12608429 -17.55091278 12.9079303 -17.55613708 11.65286255 C-16.65773 6.75391585 -14.13992629 3.94250444 -10.12524414 0.94458008 C-6.77948916 -0.04175373 -3.45757069 -0.00428436 0 0 Z " fill="#FEF8F4" transform="translate(45.94140625,36.69921875)"/>
<path d="M0 0 C1.875 1.125 1.875 1.125 3 3 C2.67117212 7.70336044 1.61702895 10.00946664 -1.69018555 13.32128906 C-2.47157394 14.11521057 -3.25296234 14.90913208 -4.05802917 15.72711182 C-4.90899673 16.56482117 -5.75996429 17.40253052 -6.63671875 18.265625 C-7.50891556 19.14023376 -8.38111237 20.01484253 -9.27973938 20.91595459 C-11.59778878 23.23277492 -13.92731576 25.53726696 -16.26141357 27.83789062 C-17.68549313 29.2480128 -19.10051522 30.66659209 -20.51245117 32.08886719 C-23.23045053 34.82565401 -25.96216005 37.54791208 -28.69921875 40.265625 C-29.54006516 41.11143127 -30.38091156 41.95723755 -31.24723816 42.82867432 C-32.04438736 43.60998718 -32.84153656 44.39130005 -33.6628418 45.19628906 C-34.35709763 45.88434631 -35.05135345 46.57240356 -35.76664734 47.28131104 C-39.66671791 50.28263204 -43.13345364 51 -48 51 C-48.11009998 44.85339723 -47.26423554 41.72544283 -43.11035156 37.12280273 C-41.3917835 35.37186173 -39.65036578 33.64315012 -37.890625 31.93359375 C-36.97166443 31.01409439 -36.05270386 30.09459503 -35.105896 29.14723206 C-33.16780211 27.2108739 -31.21686167 25.28885558 -29.25488281 23.37670898 C-26.74291568 20.92732663 -24.26092439 18.44998959 -21.78720474 15.96205044 C-19.41813795 13.58503155 -17.0290219 11.22869407 -14.640625 8.87109375 C-13.75086975 7.98062851 -12.8611145 7.09016327 -11.94439697 6.17271423 C-11.10713074 5.36089188 -10.2698645 4.54906952 -9.40722656 3.71264648 C-8.67522034 2.99366684 -7.94321411 2.27468719 -7.18902588 1.53392029 C-4.54817407 -0.31660885 -3.16049423 -0.40806678 0 0 Z " fill="#F27228" transform="translate(113,36)"/>
</svg>
