<svg width="42" height="42" viewBox="0 0 42 42" fill="none" xmlns="http://www.w3.org/2000/svg">
<rect width="42" height="42" rx="8" fill="#D9E7E9"/>
<path d="M31.1837 18.8602H36.3703C37.8472 18.8602 38.6384 18.2044 38.6384 16.5738V7.28603C38.6384 5.65536 37.8472 4.99954 36.3703 4.99954H31.1837C29.7244 4.99954 28.9156 5.65536 28.9156 7.28603V16.5738C28.9156 18.2044 29.7244 18.8602 31.1837 18.8602ZM5.26806 18.8602H10.4547C11.914 18.8602 12.7228 18.2044 12.7228 16.5738V7.28603C12.7228 5.65536 11.914 4.99954 10.4547 4.99954H5.26806C3.80876 4.99954 3 5.65536 3 7.28603V16.5738C3 18.2044 3.80876 18.8602 5.26806 18.8602ZM18.2259 18.8602H23.4125C24.8718 18.8602 25.6806 18.2044 25.6806 16.5738V7.28603C25.6806 5.65536 24.8718 4.99954 23.4125 4.99954H18.2259C16.7666 4.99954 15.9578 5.65536 15.9578 7.28603V16.5738C15.9578 18.2044 16.7666 18.8602 18.2259 18.8602ZM5.26806 36H10.4547C11.914 36 12.7228 35.3265 12.7228 33.7135V24.4081C12.7228 22.7951 11.914 22.1393 10.4547 22.1393H5.26806C3.80876 22.1393 3 22.7951 3 24.4081V33.7135C3 35.3265 3.80876 36 5.26806 36ZM18.2259 36H23.4125C24.8718 36 25.6806 35.3265 25.6806 33.7135V24.4081C25.6806 22.7951 24.8718 22.1393 23.4125 22.1393H18.2259C16.7666 22.1393 15.9578 22.7951 15.9578 24.4081V33.7135C15.9578 35.3265 16.7666 36 18.2259 36ZM31.1837 36H36.3703C37.8472 36 38.6384 35.3265 38.6384 33.7135V24.4081C38.6384 22.7951 37.8472 22.1393 36.3703 22.1393H31.1837C29.7244 22.1393 28.9156 22.7951 28.9156 24.4081V33.7135C28.9156 35.3265 29.7244 36 31.1837 36Z" fill="#00ABBD" stroke="#00ABBD"/>
</svg>
