<svg width="42" height="42" viewBox="0 0 42 42" fill="none" xmlns="http://www.w3.org/2000/svg">
<rect y="0.00390625" width="42" height="42" rx="8" fill="#D9E7E9"/>
<path d="M12.7797 36.9531H29.2355C31.773 36.9531 33.1254 35.6042 33.1254 33.0578V17.9311C33.1254 16.9156 32.943 16.4457 32.3352 15.8394L22.3067 5.851C21.699 5.22956 21.2279 5.04767 20.2099 5.04767H12.7797C10.2726 5.04767 8.87464 6.39665 8.87464 8.94302V33.0578C8.87464 35.6042 10.227 36.9531 12.7797 36.9531ZM12.8101 36.2104C10.7132 36.2104 9.61918 35.1191 9.61918 33.0275V8.97333C9.61918 6.95745 10.7132 5.79037 12.8101 5.79037H20.6353V15.5515C20.6353 16.9459 21.3191 17.5067 22.5954 17.5067H32.3808V33.0275C32.3808 35.1191 31.302 36.2104 29.1899 36.2104H12.8101ZM22.6258 16.764C21.7293 16.764 21.3799 16.4154 21.3799 15.5212V5.98741L32.1833 16.764H22.6258ZM27.4425 23.524H14.6942C14.4663 23.524 14.2991 23.6908 14.2991 23.903C14.2991 24.1152 14.4663 24.2819 14.6942 24.2819H27.4425C27.6705 24.2819 27.8376 24.1152 27.8376 23.903C27.8376 23.6908 27.6705 23.524 27.4425 23.524ZM27.4425 28.9048H14.6942C14.4663 28.9048 14.2991 29.0715 14.2991 29.2837C14.2991 29.4807 14.4663 29.6626 14.6942 29.6626H27.4425C27.6705 29.6626 27.8376 29.4807 27.8376 29.2837C27.8376 29.0715 27.6705 28.9048 27.4425 28.9048Z" fill="#00ABBD" stroke="#00ABBD"/>
</svg>
