<svg width="42" height="42" viewBox="0 0 42 42" fill="none" xmlns="http://www.w3.org/2000/svg">
<rect y="0.00390625" width="42" height="42" rx="8" fill="#D9E7E9"/>
<path d="M10.9244 35.8438H24.8815C27.1535 35.8438 28.0056 34.7693 28.0056 32.7411V30.3387H31.0756C33.3477 30.3387 34.5513 29.2643 34.5513 27.2361V15.7914C34.5513 15.3085 34.389 14.9101 33.848 14.4273L25.2737 6.77333C24.7327 6.29043 24.2864 6.15763 23.7454 6.15763H17.4566C15.2251 6.15763 13.9809 7.23208 13.9809 9.26025V11.6627H10.9244C8.69292 11.6627 7.44868 12.7371 7.44868 14.7653V32.7411C7.44868 34.7693 8.65234 35.8438 10.9244 35.8438ZM28.0056 21.9242C28.0056 21.1154 27.8433 20.7411 27.2888 20.2582L18.3763 12.3025C17.8353 11.8196 17.4161 11.6627 16.5099 11.6627H14.6436V9.2844C14.6436 7.67876 15.6173 6.74918 17.4972 6.74918H23.9618V14.1013C23.9618 15.1999 24.5163 15.5983 25.6388 15.5983H33.8886V27.212C33.8886 28.878 32.9149 29.7472 31.035 29.7472H28.0056V21.9242ZM25.6253 15.0067C24.9085 15.0067 24.6245 14.7532 24.6245 14.1254V7.06307L33.5235 15.0067H25.6253ZM10.9515 35.2522C9.08512 35.2522 8.11137 34.383 8.11137 32.717V14.7894C8.11137 13.1838 9.08512 12.2542 10.9515 12.2542H16.8751V20.0289C16.8751 21.1395 17.4972 21.5862 18.6333 21.5862H27.3429V32.717C27.3429 34.383 26.3691 35.2522 24.5028 35.2522H10.9515ZM18.6603 20.9947C17.8624 20.9947 17.5513 20.717 17.5513 20.0047V12.4232L27.1671 20.9947H18.6603Z" fill="#00ABBD" stroke="#00ABBD"/>
</svg>
