<svg width="41" height="41" viewBox="0 0 41 41" fill="none" xmlns="http://www.w3.org/2000/svg">
<rect width="41" height="41" rx="8" fill="#E9D9D9"/>
<g clip-path="url(#clip0_267_7)">
<path d="M22.4984 20.9686C22.4984 20.8 22.3399 20.6574 22.1682 20.6574H6.63196L4.83526 20.6703L6.60554 18.9456L9.32702 16.2741C9.39307 16.2093 9.44592 16.1055 9.44592 16.0277C9.44592 15.8851 9.3006 15.7424 9.12885 15.7424C9.04959 15.7424 8.98353 15.7813 8.91748 15.8462L3.89727 20.7481C3.84443 20.813 3.8048 20.8908 3.8048 20.9686C3.8048 21.0464 3.84443 21.1372 3.89727 21.1891L8.91748 26.117C8.98353 26.1818 9.04959 26.2207 9.12885 26.2207C9.3006 26.2207 9.44592 26.091 9.44592 25.9354C9.44592 25.8446 9.39307 25.7539 9.32702 25.689L6.60554 23.0176L4.82205 21.2798L6.63196 21.2928H22.1682C22.3399 21.2928 22.4984 21.1502 22.4984 20.9686ZM32.3143 28.5031V13.473C32.3143 11.2943 31.0989 10.1402 28.919 10.1402H14.77C12.5902 10.1402 11.3747 11.2943 11.3747 13.473V17.3375H12.0221V13.5119C12.0221 11.7742 12.9733 10.7756 14.8096 10.7756H28.8926C30.7157 10.7756 31.6669 11.7742 31.6669 13.5119V28.4772C31.6669 30.2668 30.7157 31.2005 28.8926 31.2005H14.8096C12.9733 31.2005 12.0221 30.2668 12.0221 28.4772V24.6127H11.3747V28.5031C11.3747 30.6818 12.5505 31.8359 14.77 31.8359H28.919C31.1385 31.8359 32.3143 30.6818 32.3143 28.5031Z" fill="#BD0000" stroke="#BD0000"/>
</g>
<defs>
<clipPath id="clip0_267_7">
<rect width="28.3095" height="36.119" fill="white" transform="matrix(0 -1 1 0 0 35.1445)"/>
</clipPath>
</defs>
</svg>
