<svg width="38" height="38" viewBox="0 0 38 38" fill="none" xmlns="http://www.w3.org/2000/svg">
<g opacity="0.5">
<rect width="38" height="38" rx="8" fill="#D9E7E9"/>
<g clip-path="url(#clip0_44_78)">
<path d="M25.4324 31.5753C25.5477 31.6587 25.6136 31.7422 25.7454 31.7422C25.9595 31.7422 26.1407 31.5586 26.1407 31.3416C26.1407 31.2415 26.1242 31.1079 26.0419 31.0578L12.8476 18.9901L26.0419 6.97243C26.1242 6.88897 26.1407 6.77213 26.1407 6.67199C26.1407 6.43831 25.9595 6.25471 25.7454 6.25471C25.6136 6.25471 25.5642 6.32147 25.4653 6.40493L12.1228 18.5394C11.9746 18.6897 11.8593 18.8232 11.8593 19.0068C11.8593 19.2071 11.9581 19.3239 12.1064 19.4741L25.4324 31.5753Z" fill="#00ABBD" stroke="#00ABBD" stroke-width="2"/>
</g>
</g>
<defs>
<clipPath id="clip0_44_78">
<rect width="34" height="24" fill="white" transform="matrix(0 -1 1 0 7 36)"/>
</clipPath>
</defs>
</svg>
