<svg width="38" height="38" viewBox="0 0 38 38" fill="none" xmlns="http://www.w3.org/2000/svg">
<g opacity="0.5">
<rect width="38" height="38" rx="8" fill="#D9E7E9"/>
<g clip-path="url(#clip0_44_77)">
<path d="M12.5676 6.42472C12.4523 6.34127 12.3864 6.25781 12.2546 6.25781C12.0405 6.25781 11.8593 6.44142 11.8593 6.6584C11.8593 6.75855 11.8758 6.89208 11.9581 6.94215L25.1524 19.0099L11.9581 31.0276C11.8758 31.111 11.8593 31.2279 11.8593 31.328C11.8593 31.5617 12.0405 31.7453 12.2546 31.7453C12.3864 31.7453 12.4358 31.6785 12.5347 31.5951L25.8772 19.4606C26.0254 19.3103 26.1407 19.1768 26.1407 18.9932C26.1407 18.7929 26.0419 18.6761 25.8936 18.5259L12.5676 6.42472Z" fill="#00ABBD" stroke="#00ABBD" stroke-width="2"/>
</g>
</g>
<defs>
<clipPath id="clip0_44_77">
<rect width="34" height="24" fill="white" transform="matrix(0 1 -1 0 31 2)"/>
</clipPath>
</defs>
</svg>
