<svg width="42" height="42" viewBox="0 0 42 42" fill="none" xmlns="http://www.w3.org/2000/svg">
<rect width="42" height="42" rx="8" fill="#D9E7E9"/>
<path d="M24.7236 35.4146C32.5779 35.4146 39 29.0202 39 21.1998C39 13.3944 32.5779 7 24.7236 7C17.0955 7 10.794 13.0792 10.4774 20.5994C14.2915 20.7495 17.5025 23.5114 18.2864 27.1289C20.0804 26.3033 22.2965 25.793 24.7236 25.793C29.3819 25.793 33.3015 27.6092 34.7789 30.161C32.3065 32.9079 28.7186 34.6341 24.7236 34.6341C22.1005 34.6341 19.6734 33.8835 17.5779 32.5927C17.4573 32.8178 17.3367 33.028 17.201 33.2531C19.3719 34.619 21.9799 35.4146 24.7236 35.4146ZM24.7236 23.4664C21.8442 23.4814 19.6734 20.9896 19.6734 17.8225C19.6734 14.8354 21.9196 12.3137 24.7236 12.3137C27.5427 12.3137 29.7889 14.8354 29.7889 17.8225C29.7889 20.9896 27.6181 23.4363 24.7236 23.4664ZM10.1759 36C14.0955 36 17.3367 32.7878 17.3367 28.8701C17.3367 24.9674 14.0955 21.7252 10.1759 21.7252C6.25628 21.7252 3 24.9674 3 28.8701C3 32.7878 6.25628 36 10.1759 36ZM9.36181 32.7277C9.22613 32.7277 9.10553 32.6677 8.96985 32.5326L6.21106 29.5155C6.10553 29.3804 6.0603 29.2604 6.0603 29.1553C6.0603 28.9151 6.25628 28.72 6.51256 28.72C6.70854 28.72 6.799 28.81 6.9196 28.9301L9.34673 31.5269L13.4925 25.868C13.5678 25.7479 13.7186 25.6729 13.8693 25.6729C14.1106 25.6729 14.2915 25.868 14.2915 26.1082C14.2915 26.2283 14.2613 26.3183 14.1859 26.4084L9.72362 32.5326C9.64824 32.6677 9.52764 32.7277 9.36181 32.7277Z" fill="#00ABBD" stroke="#00ABBD" stroke-width="0.5"/>
</svg>
