<?xml version="1.0" encoding="UTF-8"?>
<svg version="1.1" xmlns="http://www.w3.org/2000/svg" width="168" height="168">
<path d="M0 0 C1.15684799 -0.00671722 2.31369598 -0.01343445 3.50559998 -0.02035522 C7.32563587 -0.03933535 11.14549607 -0.04325949 14.96557617 -0.04541016 C16.95321703 -0.0502128 18.94085793 -0.05501906 20.92849749 -0.06033099 C27.17695399 -0.0765912 33.4253529 -0.08150215 39.67382812 -0.08007812 C46.10182397 -0.07887756 52.5294836 -0.09996762 58.95739442 -0.13156545 C64.49138416 -0.15779137 70.02526452 -0.16844277 75.55931586 -0.16716731 C78.85779986 -0.16665947 82.15591918 -0.17410615 85.45435524 -0.19352341 C89.13782053 -0.21317677 92.82042634 -0.20734673 96.50390625 -0.1953125 C97.58421112 -0.20655151 98.66451599 -0.21779053 99.77755737 -0.22937012 C109.58498974 -0.14818365 116.50398842 2.76262408 123.65698242 9.43115234 C131.4087627 17.48758775 132.74572864 24.86964644 132.73657227 35.84448242 C132.74328949 37.00133041 132.75000671 38.15817841 132.75692749 39.3500824 C132.77590762 43.17011829 132.77983175 46.98997849 132.78198242 50.81005859 C132.78678506 52.79769945 132.79159133 54.78534035 132.79690325 56.77297992 C132.81316346 63.02143641 132.81807442 69.26983532 132.81665039 75.51831055 C132.81544982 81.94630639 132.83653988 88.37396602 132.86813772 94.80187684 C132.89436363 100.33586658 132.90501504 105.86974694 132.90373957 111.40379828 C132.90323174 114.70228229 132.91067841 118.0004016 132.93009567 121.29883766 C132.94974904 124.98230295 132.943919 128.66490876 132.93188477 132.34838867 C132.94312378 133.42869354 132.95436279 134.50899841 132.96594238 135.62203979 C132.88475592 145.42947216 129.97394819 152.34847085 123.30541992 159.50146484 C115.24898452 167.25324513 107.86692583 168.59021107 96.89208984 168.58105469 C95.73524185 168.58777191 94.57839386 168.59448914 93.38648987 168.60140991 C89.56645397 168.62039004 85.74659377 168.62431418 81.92651367 168.62646484 C79.93887281 168.63126748 77.95123192 168.63607375 75.96359235 168.64138567 C69.71513586 168.65764589 63.46673694 168.66255684 57.21826172 168.66113281 C50.79026587 168.65993224 44.36260624 168.6810223 37.93469542 168.71262014 C32.40070568 168.73884605 26.86682533 168.74949746 21.33277398 168.74822199 C18.03428998 168.74771416 14.73617067 168.75516083 11.4377346 168.77457809 C7.75426931 168.79423146 4.07166351 168.78840142 0.38818359 168.77636719 C-0.69212128 168.7876062 -1.77242615 168.79884521 -2.88546753 168.8104248 C-12.6928999 168.72923834 -19.61189858 165.81843061 -26.76489258 159.14990234 C-34.51667286 151.09346694 -35.8536388 143.71140825 -35.84448242 132.73657227 C-35.85119965 131.57972427 -35.85791687 130.42287628 -35.86483765 129.23097229 C-35.88381778 125.41093639 -35.88774191 121.5910762 -35.88989258 117.77099609 C-35.89469522 115.78335523 -35.89950148 113.79571434 -35.90481341 111.80807477 C-35.92107362 105.55961828 -35.92598457 99.31121937 -35.92456055 93.06274414 C-35.92335998 86.63474829 -35.94445004 80.20708866 -35.97604787 73.77917784 C-36.00227379 68.24518811 -36.0129252 62.71130775 -36.01164973 57.17725641 C-36.01114189 53.8787724 -36.01858857 50.58065309 -36.03800583 47.28221703 C-36.0576592 43.59875174 -36.05182915 39.91614593 -36.03979492 36.23266602 C-36.05103394 35.15236115 -36.06227295 34.07205627 -36.07385254 32.95901489 C-35.99266607 23.15158253 -33.08185835 16.23258384 -26.41333008 9.07958984 C-18.35689468 1.32780956 -10.97483598 -0.00915638 0 0 Z " fill="#D8E6E8" transform="translate(35.553955078125,-0.29052734375)"/>
<path d="M0 0 C9.64810179 6.81042479 14.76977855 16.57011506 17 28 C18.24005629 40.02009111 15.97859008 49.95103921 9.01171875 59.80859375 C7.72149307 61.92669637 7.72149307 61.92669637 8.68994141 63.89111328 C10.1920286 66.30912095 11.86627776 67.99379718 13.94921875 69.93359375 C14.71427734 70.66513672 15.47933594 71.39667969 16.26757812 72.15039062 C17.88511848 73.67915556 19.51019642 75.19998316 21.14257812 76.71289062 C21.90376953 77.44572266 22.66496094 78.17855469 23.44921875 78.93359375 C24.15393311 79.59415771 24.85864746 80.25472168 25.5847168 80.93530273 C27 83 27 83 26.72192383 85.75415039 C26.48368896 86.49528076 26.2454541 87.23641113 26 88 C23.7902832 88.75366211 23.7902832 88.75366211 21 89 C18.68823242 87.36938477 18.68823242 87.36938477 16.35546875 84.94140625 C15.51435547 84.08095703 14.67324219 83.22050781 13.80664062 82.33398438 C12.94232422 81.41939453 12.07800781 80.50480469 11.1875 79.5625 C10.30384766 78.65177734 9.42019531 77.74105469 8.50976562 76.80273438 C6.32583286 74.54797136 4.15706351 72.28043273 2 70 C1.39115967 70.30486328 0.78231934 70.60972656 0.1550293 70.92382812 C-12.59014674 77.28847477 -24.76409064 81.68503718 -39.125 77.875 C-50.68422149 73.93520104 -60.04140114 66.64155403 -66 56 C-71.23836482 44.65852442 -73.39026257 32.63909136 -69.09765625 20.5 C-62.55600613 5.60086805 -53.6331582 -2.3019938 -38.75 -8.3125 C-24.29875056 -10.96189573 -11.98139386 -8.25573075 0 0 Z " fill="#D7E6E8" transform="translate(106,44)"/>
<path d="M0 0 C9.64810179 6.81042479 14.76977855 16.57011506 17 28 C18.24005629 40.02009111 15.97859008 49.95103921 9.01171875 59.80859375 C7.72149307 61.92669637 7.72149307 61.92669637 8.68994141 63.89111328 C10.1920286 66.30912095 11.86627776 67.99379718 13.94921875 69.93359375 C14.71427734 70.66513672 15.47933594 71.39667969 16.26757812 72.15039062 C17.88511848 73.67915556 19.51019642 75.19998316 21.14257812 76.71289062 C21.90376953 77.44572266 22.66496094 78.17855469 23.44921875 78.93359375 C24.15393311 79.59415771 24.85864746 80.25472168 25.5847168 80.93530273 C27 83 27 83 26.72192383 85.75415039 C26.48368896 86.49528076 26.2454541 87.23641113 26 88 C23.7902832 88.75366211 23.7902832 88.75366211 21 89 C18.68823242 87.36938477 18.68823242 87.36938477 16.35546875 84.94140625 C15.51435547 84.08095703 14.67324219 83.22050781 13.80664062 82.33398438 C12.94232422 81.41939453 12.07800781 80.50480469 11.1875 79.5625 C10.30384766 78.65177734 9.42019531 77.74105469 8.50976562 76.80273438 C6.32583286 74.54797136 4.15706351 72.28043273 2 70 C1.39115967 70.30486328 0.78231934 70.60972656 0.1550293 70.92382812 C-12.59014674 77.28847477 -24.76409064 81.68503718 -39.125 77.875 C-50.68422149 73.93520104 -60.04140114 66.64155403 -66 56 C-71.23836482 44.65852442 -73.39026257 32.63909136 -69.09765625 20.5 C-62.55600613 5.60086805 -53.6331582 -2.3019938 -38.75 -8.3125 C-24.29875056 -10.96189573 -11.98139386 -8.25573075 0 0 Z M-54.94140625 11.1875 C-61.2563449 19.41405891 -63.75313434 28.87295238 -63.41015625 39.20703125 C-61.76895836 50.38280737 -55.5431745 58.58411376 -46.875 65.375 C-38.9510703 70.98714983 -29.54769039 72.0929593 -20 71 C-11.93662063 68.72962929 -5.79431281 64.9834046 0 59 C0.9075 58.13375 1.815 57.2675 2.75 56.375 C8.17571421 49.45951341 9.7213674 39.46821631 9.3828125 30.9140625 C8.04004759 20.69260717 3.2487004 12.25800892 -4.6875 5.75 C-20.69900892 -5.32790598 -41.91227541 -3.4932108 -54.94140625 11.1875 Z " fill="#06ACBE" transform="translate(106,44)"/>
</svg>
