<svg width="38" height="38" viewBox="0 0 38 38" fill="none" xmlns="http://www.w3.org/2000/svg">
<rect width="38" height="38" rx="8" fill="#D9E7E9"/>
<path d="M6.90173 30.8906H31.1117C33.3629 30.8906 34.5626 29.6531 34.5626 27.3957V10.6012C34.5626 8.34376 33.3629 7.10626 31.1117 7.10626H6.90173C4.6371 7.10626 3.43739 8.31656 3.43739 10.6012V27.3957C3.43739 29.6803 4.6371 30.8906 6.90173 30.8906ZM6.92869 30.2243C5.06846 30.2243 4.0979 29.2452 4.0979 27.3685V10.6284C4.0979 8.73812 5.06846 7.77261 6.92869 7.77261H12.9947V30.2243H6.92869ZM31.0713 7.77261C32.8641 7.77261 33.9021 8.73812 33.9021 10.6284V27.3685C33.9021 29.2452 32.8641 30.2243 31.0713 30.2243H13.6552V7.77261H31.0713ZM10.4335 12.8722C10.6357 12.8722 10.784 12.7226 10.784 12.5322C10.784 12.3418 10.6357 12.1922 10.4335 12.1922H6.6591C6.4569 12.1922 6.30862 12.3418 6.30862 12.5322C6.30862 12.7226 6.4569 12.8722 6.6591 12.8722H10.4335ZM10.4335 16.6254C10.6357 16.6254 10.784 16.4759 10.784 16.2855C10.784 16.0951 10.6357 15.9455 10.4335 15.9455H6.6591C6.4569 15.9455 6.30862 16.0951 6.30862 16.2855C6.30862 16.4759 6.4569 16.6254 6.6591 16.6254H10.4335ZM10.4335 20.3651C10.6357 20.3651 10.784 20.2155 10.784 20.0252C10.784 19.8348 10.6357 19.6852 10.4335 19.6852H6.6591C6.4569 19.6852 6.30862 19.8348 6.30862 20.0252C6.30862 20.2155 6.4569 20.3651 6.6591 20.3651H10.4335Z" fill="#00ABBD" stroke="#00ABBD"/>
</svg>
